<?xml version="1.0" encoding="UTF-8" standalone="no"?>
<!-- Created with Inkscape (http://www.inkscape.org/) -->

<svg
   width="282.41934"
   height="33.5"
   viewBox="0 0 282.41934 33.5"
   version="1.1"
   id="svg5"
   inkscape:version="1.1 (c68e22c387, 2021-05-23)"
   sodipodi:docname="logo.svg"
   xmlns:inkscape="http://www.inkscape.org/namespaces/inkscape"
   xmlns:sodipodi="http://sodipodi.sourceforge.net/DTD/sodipodi-0.dtd"
   xmlns="http://www.w3.org/2000/svg"
   xmlns:svg="http://www.w3.org/2000/svg">
  <sodipodi:namedview
     id="namedview7"
     pagecolor="#ffffff"
     bordercolor="#666666"
     borderopacity="1.0"
     inkscape:pageshadow="2"
     inkscape:pageopacity="0.0"
     inkscape:pagecheckerboard="0"
     inkscape:document-units="px"
     showgrid="false"
     units="px"
     width="300px"
     fit-margin-top="0"
     fit-margin-left="0"
     fit-margin-right="0"
     fit-margin-bottom="0"
     inkscape:zoom="2.9647587"
     inkscape:cx="138.79713"
     inkscape:cy="33.898206"
     inkscape:window-width="1920"
     inkscape:window-height="1017"
     inkscape:window-x="1912"
     inkscape:window-y="-8"
     inkscape:window-maximized="1"
     inkscape:current-layer="layer1" />
  <defs
     id="defs2">
    <rect
       x="14.166414"
       y="10.793459"
       width="221.94049"
       height="60.713203"
       id="rect2696" />
  </defs>
  <g
     inkscape:label="Layer 1"
     inkscape:groupmode="layer"
     id="layer1"
     transform="translate(-6.1632062,-26.55377)">
    <g
       aria-label="Needs Callouts"
       id="text14174-5"
       style="font-weight:bold;font-size:40px;line-height:1.25;font-family:Nunito;-inkscape-font-specification:'Nunito, Bold';fill:#ff8e99">
      <path
         d="m 8.5632062,59.97377 q -2.4,0 -2.4,-2.48 v -23.8 q 0,-1.24 0.6,-1.88 0.64,-0.68 1.64,-0.68 0.92,0 1.36,0.36 0.4799998,0.32 1.1199998,1.12 l 14.28,18.52 v -17.56 q 0,-2.44 2.4,-2.44 2.36,0 2.36,2.44 v 24 q 0,1.12 -0.56,1.76 -0.56,0.64 -1.52,0.64 -0.92,0 -1.48,-0.36 -0.52,-0.36 -1.16,-1.16 l -14.28,-18.56 v 17.6 q 0,2.48 -2.3599998,2.48 z"
         id="path20558" />
      <path
         d="m 45.243174,60.05377 q -3.32,0 -5.72,-1.24 -2.4,-1.24 -3.72,-3.52 -1.28,-2.28 -1.28,-5.4 0,-3.04 1.24,-5.32 1.28,-2.28 3.48,-3.56 2.24,-1.32 5.08,-1.32 4.16,0 6.56,2.64 2.44,2.64 2.44,7.2 0,1.48 -1.92,1.48 h -12.08 q 0.56,5.24 6,5.24 1.04,0 2.32,-0.24 1.32,-0.28 2.48,-0.92 1.04,-0.6 1.76,-0.36 0.72,0.2 1,0.84 0.32,0.64 0.08,1.44 -0.2,0.76 -1.12,1.32 -1.4,0.88 -3.24,1.32 -1.8,0.4 -3.36,0.4 z m -0.72,-16.96 q -2.2,0 -3.56,1.36 -1.36,1.36 -1.64,3.68 h 9.84 q -0.16,-2.44 -1.36,-3.72 -1.16,-1.32 -3.28,-1.32 z"
         id="path20560" />
      <path
         d="m 66.923167,60.05377 q -3.32,0 -5.72,-1.24 -2.4,-1.24 -3.72,-3.52 -1.28,-2.28 -1.28,-5.4 0,-3.04 1.24,-5.32 1.28,-2.28 3.48,-3.56 2.24,-1.32 5.08,-1.32 4.16,0 6.56,2.64 2.44,2.64 2.44,7.2 0,1.48 -1.92,1.48 h -12.08 q 0.56,5.24 6,5.24 1.04,0 2.32,-0.24 1.32,-0.28 2.48,-0.92 1.04,-0.6 1.76,-0.36 0.72,0.2 1,0.84 0.32,0.64 0.08,1.44 -0.2,0.76 -1.12,1.32 -1.4,0.88 -3.24,1.32 -1.8,0.4 -3.36,0.4 z m -0.72,-16.96 q -2.2,0 -3.56,1.36 -1.36,1.36 -1.64,3.68 h 9.84 q -0.16,-2.44 -1.36,-3.72 -1.16,-1.32 -3.28,-1.32 z"
         id="path20562" />
      <path
         d="m 86.483159,60.05377 q -2.56,0 -4.52,-1.24 -1.92,-1.24 -3,-3.52 -1.08,-2.32 -1.08,-5.44 0,-3.16 1.08,-5.4 1.08,-2.28 3,-3.52 1.96,-1.24 4.52,-1.24 2.08,0 3.76,0.92 1.68,0.92 2.52,2.44 v -9.4 q 0,-2.52 2.48,-2.52 2.52,0 2.52,2.52 v 23.76 q 0,2.56 -2.48,2.56 -2.48,0 -2.48,-2.56 v -0.84 q -0.84,1.6 -2.52,2.56 -1.68,0.92 -3.8,0.92 z m 1.4,-3.8 q 2.24,0 3.6,-1.6 1.36,-1.64 1.36,-4.8 0,-3.2 -1.36,-4.76 -1.36,-1.6 -3.6,-1.6 -2.24,0 -3.6,1.6 -1.36,1.56 -1.36,4.76 0,3.16 1.36,4.8 1.36,1.6 3.6,1.6 z"
         id="path20564" />
      <path
         d="m 110.1231,60.05377 q -1.72,0 -3.64,-0.36 -1.92,-0.36 -3.44,-1.24 -0.84,-0.48 -1.04,-1.16 -0.2,-0.72 0.04,-1.32 0.28,-0.64 0.88,-0.92 0.64,-0.28 1.48,0.12 1.6,0.76 3,1.08 1.4,0.28 2.76,0.28 1.92,0 2.84,-0.64 0.96,-0.68 0.96,-1.76 0,-1.68 -2.48,-2.16 l -4,-0.76 q -5.08,-0.96 -5.08,-5.28 0,-1.92 1.04,-3.32 1.08,-1.4 2.96,-2.16 1.88,-0.76 4.32,-0.76 3.52,0 6.28,1.56 0.76,0.4 0.88,1.12 0.16,0.68 -0.16,1.32 -0.28,0.6 -0.92,0.88 -0.64,0.24 -1.48,-0.16 -1.24,-0.64 -2.4,-0.92 -1.12,-0.28 -2.16,-0.28 -1.96,0 -2.92,0.68 -0.92,0.68 -0.92,1.8 0,1.76 2.28,2.16 l 4,0.76 q 2.6,0.48 3.92,1.76 1.36,1.28 1.36,3.44 0,2.92 -2.28,4.6 -2.28,1.64 -6.08,1.64 z"
         id="path20566" />
      <path
         d="m 146.92305,60.05377 q -4.4,0 -7.56,-1.76 -3.12,-1.8 -4.8,-5.04 -1.68,-3.28 -1.68,-7.72 0,-4.44 1.68,-7.68 1.68,-3.24 4.8,-5 3.16,-1.8 7.56,-1.8 2.2,0 4.32,0.56 2.12,0.56 3.72,1.6 1.04,0.68 1.24,1.64 0.2,0.92 -0.24,1.72 -0.44,0.76 -1.32,1.04 -0.88,0.24 -1.96,-0.48 -1.24,-0.8 -2.68,-1.16 -1.44,-0.36 -2.92,-0.36 -4.28,0 -6.52,2.6 -2.24,2.56 -2.24,7.32 0,4.76 2.24,7.36 2.24,2.6 6.52,2.6 1.52,0 3,-0.36 1.48,-0.4 2.8,-1.2 1.08,-0.68 1.92,-0.44 0.84,0.24 1.24,1 0.44,0.72 0.28,1.6 -0.16,0.88 -1.08,1.56 -1.6,1.16 -3.84,1.8 -2.2,0.6 -4.48,0.6 z"
         id="path20568" />
      <path
         d="m 166.24293,60.05377 q -2.12,0 -3.8,-0.8 -1.64,-0.84 -2.6,-2.24 -0.92,-1.4 -0.92,-3.16 0,-2.16 1.12,-3.4 1.12,-1.28 3.64,-1.84 2.52,-0.56 6.76,-0.56 h 1.4 v -0.84 q 0,-2 -0.88,-2.88 -0.88,-0.88 -2.96,-0.88 -1.16,0 -2.52,0.28 -1.32,0.28 -2.8,0.96 -0.96,0.44 -1.6,0.12 -0.64,-0.36 -0.88,-1.08 -0.2,-0.76 0.08,-1.52 0.32,-0.76 1.24,-1.12 1.84,-0.76 3.52,-1.08 1.72,-0.32 3.12,-0.32 4.28,0 6.36,2 2.08,1.96 2.08,6.12 v 9.6 q 0,2.56 -2.32,2.56 -2.36,0 -2.36,-2.56 v -0.88 q -0.68,1.64 -2.16,2.6 -1.48,0.92 -3.52,0.92 z m 1.04,-3.44 q 1.96,0 3.24,-1.36 1.32,-1.36 1.32,-3.44 v -0.88 h -1.36 q -3.76,0 -5.24,0.6 -1.44,0.56 -1.44,2.08 0,1.32 0.92,2.16 0.92,0.84 2.56,0.84 z"
         id="path20570" />
      <path
         d="m 188.36289,60.05377 q -6.68,0 -6.68,-7.48 v -18.92 q 0,-2.52 2.48,-2.52 2.52,0 2.52,2.52 v 18.68 q 0,3.6 3,3.6 0.32,0 0.6,0 0.28,-0.04 0.56,-0.08 0.56,-0.08 0.76,0.32 0.2,0.36 0.2,1.52 0,1 -0.4,1.56 -0.4,0.56 -1.32,0.68 -0.84,0.12 -1.72,0.12 z"
         id="path20572" />
      <path
         d="m 201.12282,60.05377 q -6.68,0 -6.68,-7.48 v -18.92 q 0,-2.52 2.48,-2.52 2.52,0 2.52,2.52 v 18.68 q 0,3.6 3,3.6 0.32,0 0.6,0 0.28,-0.04 0.56,-0.08 0.56,-0.08 0.76,0.32 0.2,0.36 0.2,1.52 0,1 -0.4,1.56 -0.4,0.56 -1.32,0.68 -0.84,0.12 -1.72,0.12 z"
         id="path20574" />
      <path
         d="m 215.92271,60.05377 q -3.04,0 -5.28,-1.24 -2.24,-1.24 -3.48,-3.52 -1.24,-2.32 -1.24,-5.44 0,-3.12 1.24,-5.4 1.24,-2.28 3.48,-3.52 2.24,-1.24 5.28,-1.24 3.04,0 5.28,1.24 2.24,1.24 3.48,3.52 1.24,2.28 1.24,5.4 0,3.12 -1.24,5.44 -1.24,2.28 -3.48,3.52 -2.24,1.24 -5.28,1.24 z m 0,-3.8 q 2.24,0 3.6,-1.6 1.36,-1.64 1.36,-4.8 0,-3.2 -1.36,-4.76 -1.36,-1.6 -3.6,-1.6 -2.24,0 -3.6,1.6 -1.36,1.56 -1.36,4.76 0,3.16 1.36,4.8 1.36,1.6 3.6,1.6 z"
         id="path20576" />
      <path
         d="m 237.12264,60.05377 q -7.2,0 -7.2,-8.08 v -9.68 q 0,-2.52 2.48,-2.52 2.52,0 2.52,2.52 v 9.76 q 0,2.08 0.84,3.08 0.84,1 2.68,1 2,0 3.28,-1.36 1.28,-1.4 1.28,-3.68 v -8.8 q 0,-2.52 2.48,-2.52 2.52,0 2.52,2.52 v 15.12 q 0,2.56 -2.44,2.56 -2.44,0 -2.44,-2.56 v -0.68 q -1.96,3.32 -6,3.32 z"
         id="path20578" />
      <path
         d="m 262.16258,60.05377 q -7.76,0 -7.76,-7.68 v -8.52 h -2.08 q -2,0 -2,-1.88 0,-1.88 2,-1.88 h 2.08 v -3.64 q 0,-2.52 2.52,-2.52 2.48,0 2.48,2.52 v 3.64 h 4.24 q 2,0 2,1.88 0,1.88 -2,1.88 h -4.24 v 8.24 q 0,1.92 0.84,2.88 0.84,0.96 2.72,0.96 0.68,0 1.2,-0.12 0.52,-0.12 0.92,-0.16 0.48,-0.04 0.8,0.32 0.32,0.32 0.32,1.36 0,0.8 -0.28,1.44 -0.24,0.6 -0.92,0.84 -0.52,0.16 -1.36,0.28 -0.84,0.16 -1.48,0.16 z"
         id="path20580" />
      <path
         d="m 275.72254,60.05377 q -1.72,0 -3.64,-0.36 -1.92,-0.36 -3.44,-1.24 -0.84,-0.48 -1.04,-1.16 -0.2,-0.72 0.04,-1.32 0.28,-0.64 0.88,-0.92 0.64,-0.28 1.48,0.12 1.6,0.76 3,1.08 1.4,0.28 2.76,0.28 1.92,0 2.84,-0.64 0.96,-0.68 0.96,-1.76 0,-1.68 -2.48,-2.16 l -4,-0.76 q -5.08,-0.96 -5.08,-5.28 0,-1.92 1.04,-3.32 1.08,-1.4 2.96,-2.16 1.88,-0.76 4.32,-0.76 3.52,0 6.28,1.56 0.76,0.4 0.88,1.12 0.16,0.68 -0.16,1.32 -0.28,0.6 -0.92,0.88 -0.64,0.24 -1.48,-0.16 -1.24,-0.64 -2.4,-0.92 -1.12,-0.28 -2.16,-0.28 -1.96,0 -2.92,0.68 -0.92,0.68 -0.92,1.8 0,1.76 2.28,2.16 l 4,0.76 q 2.6,0.48 3.92,1.76 1.36,1.28 1.36,3.44 0,2.92 -2.28,4.6 -2.28,1.64 -6.08,1.64 z"
         id="path20582" />
    </g>
    <text
       xml:space="preserve"
       id="text2694"
       style="font-style:normal;font-weight:normal;font-size:40px;line-height:1.25;font-family:sans-serif;white-space:pre;shape-inside:url(#rect2696);fill:#000000;fill-opacity:1;stroke:none" />
    <g
       aria-label="Needs Callouts"
       id="text14174-3"
       style="font-weight:bold;font-size:40px;line-height:1.25;font-family:Nunito;-inkscape-font-specification:'Nunito, Bold';fill:#293039">
      <path
         d="m 10.563206,57.97377 q -2.4000003,0 -2.4000003,-2.48 v -23.8 q 0,-1.24 0.6,-1.88 0.64,-0.68 1.6400003,-0.68 0.92,0 1.36,0.36 0.48,0.32 1.12,1.12 l 14.28,18.52 v -17.56 q 0,-2.44 2.4,-2.44 2.36,0 2.36,2.44 v 24 q 0,1.12 -0.56,1.76 -0.56,0.64 -1.52,0.64 -0.92,0 -1.48,-0.36 -0.52,-0.36 -1.16,-1.16 l -14.28,-18.56 v 17.6 q 0,2.48 -2.36,2.48 z"
         id="path20603" />
      <path
         d="m 47.243173,58.05377 q -3.32,0 -5.72,-1.24 -2.4,-1.24 -3.72,-3.52 -1.28,-2.28 -1.28,-5.4 0,-3.04 1.24,-5.32 1.28,-2.28 3.48,-3.56 2.24,-1.32 5.08,-1.32 4.16,0 6.56,2.64 2.44,2.64 2.44,7.2 0,1.48 -1.92,1.48 h -12.08 q 0.56,5.24 6,5.24 1.04,0 2.32,-0.24 1.32,-0.28 2.48,-0.92 1.04,-0.6 1.76,-0.36 0.72,0.2 1,0.84 0.32,0.64 0.08,1.44 -0.2,0.76 -1.12,1.32 -1.4,0.88 -3.24,1.32 -1.8,0.4 -3.36,0.4 z m -0.72,-16.96 q -2.2,0 -3.56,1.36 -1.36,1.36 -1.64,3.68 h 9.84 q -0.16,-2.44 -1.36,-3.72 -1.16,-1.32 -3.28,-1.32 z"
         id="path20605" />
      <path
         d="m 68.923166,58.05377 q -3.32,0 -5.72,-1.24 -2.4,-1.24 -3.72,-3.52 -1.28,-2.28 -1.28,-5.4 0,-3.04 1.24,-5.32 1.28,-2.28 3.48,-3.56 2.24,-1.32 5.08,-1.32 4.16,0 6.56,2.64 2.44,2.64 2.44,7.2 0,1.48 -1.92,1.48 h -12.08 q 0.56,5.24 6,5.24 1.04,0 2.32,-0.24 1.32,-0.28 2.48,-0.92 1.04,-0.6 1.76,-0.36 0.72,0.2 1,0.84 0.32,0.64 0.08,1.44 -0.2,0.76 -1.12,1.32 -1.4,0.88 -3.24,1.32 -1.8,0.4 -3.36,0.4 z m -0.72,-16.96 q -2.2,0 -3.56,1.36 -1.36,1.36 -1.64,3.68 h 9.84 q -0.16,-2.44 -1.36,-3.72 -1.16,-1.32 -3.28,-1.32 z"
         id="path20607" />
      <path
         d="m 88.483159,58.05377 q -2.56,0 -4.52,-1.24 -1.92,-1.24 -3,-3.52 -1.08,-2.32 -1.08,-5.44 0,-3.16 1.08,-5.4 1.08,-2.28 3,-3.52 1.96,-1.24 4.52,-1.24 2.08,0 3.76,0.92 1.68,0.92 2.52,2.44 v -9.4 q 0,-2.52 2.48,-2.52 2.52,0 2.52,2.52 v 23.76 q 0,2.56 -2.48,2.56 -2.48,0 -2.48,-2.56 v -0.84 q -0.84,1.6 -2.52,2.56 -1.68,0.92 -3.8,0.92 z m 1.4,-3.8 q 2.24,0 3.6,-1.6 1.36,-1.64 1.36,-4.8 0,-3.2 -1.36,-4.76 -1.36,-1.6 -3.6,-1.6 -2.24,0 -3.6,1.6 -1.36,1.56 -1.36,4.76 0,3.16 1.36,4.8 1.36,1.6 3.6,1.6 z"
         id="path20609" />
      <path
         d="m 112.1231,58.05377 q -1.72,0 -3.64,-0.36 -1.92,-0.36 -3.44,-1.24 -0.84,-0.48 -1.04,-1.16 -0.2,-0.72 0.04,-1.32 0.28,-0.64 0.88,-0.92 0.64,-0.28 1.48,0.12 1.6,0.76 3,1.08 1.4,0.28 2.76,0.28 1.92,0 2.84,-0.64 0.96,-0.68 0.96,-1.76 0,-1.68 -2.48,-2.16 l -4,-0.76 q -5.08,-0.96 -5.08,-5.28 0,-1.92 1.04,-3.32 1.08,-1.4 2.96,-2.16 1.88,-0.76 4.32,-0.76 3.52,0 6.28,1.56 0.76,0.4 0.88,1.12 0.16,0.68 -0.16,1.32 -0.28,0.6 -0.92,0.88 -0.64,0.24 -1.48,-0.16 -1.24,-0.64 -2.4,-0.92 -1.12,-0.28 -2.16,-0.28 -1.96,0 -2.92,0.68 -0.92,0.68 -0.92,1.8 0,1.76 2.28,2.16 l 4,0.76 q 2.6,0.48 3.92,1.76 1.36,1.28 1.36,3.44 0,2.92 -2.28,4.6 -2.28,1.64 -6.08,1.64 z"
         id="path20611" />
      <path
         d="m 148.92305,58.05377 q -4.4,0 -7.56,-1.76 -3.12,-1.8 -4.8,-5.04 -1.68,-3.28 -1.68,-7.72 0,-4.44 1.68,-7.68 1.68,-3.24 4.8,-5 3.16,-1.8 7.56,-1.8 2.2,0 4.32,0.56 2.12,0.56 3.72,1.6 1.04,0.68 1.24,1.64 0.2,0.92 -0.24,1.72 -0.44,0.76 -1.32,1.04 -0.88,0.24 -1.96,-0.48 -1.24,-0.8 -2.68,-1.16 -1.44,-0.36 -2.92,-0.36 -4.28,0 -6.52,2.6 -2.24,2.56 -2.24,7.32 0,4.76 2.24,7.36 2.24,2.6 6.52,2.6 1.52,0 3,-0.36 1.48,-0.4 2.8,-1.2 1.08,-0.68 1.92,-0.44 0.84,0.24 1.24,1 0.44,0.72 0.28,1.6 -0.16,0.88 -1.08,1.56 -1.6,1.16 -3.84,1.8 -2.2,0.6 -4.48,0.6 z"
         id="path20613" />
      <path
         d="m 168.24293,58.05377 q -2.12,0 -3.8,-0.8 -1.64,-0.84 -2.6,-2.24 -0.92,-1.4 -0.92,-3.16 0,-2.16 1.12,-3.4 1.12,-1.28 3.64,-1.84 2.52,-0.56 6.76,-0.56 h 1.4 v -0.84 q 0,-2 -0.88,-2.88 -0.88,-0.88 -2.96,-0.88 -1.16,0 -2.52,0.28 -1.32,0.28 -2.8,0.96 -0.96,0.44 -1.6,0.12 -0.64,-0.36 -0.88,-1.08 -0.2,-0.76 0.08,-1.52 0.32,-0.76 1.24,-1.12 1.84,-0.76 3.52,-1.08 1.72,-0.32 3.12,-0.32 4.28,0 6.36,2 2.08,1.96 2.08,6.12 v 9.6 q 0,2.56 -2.32,2.56 -2.36,0 -2.36,-2.56 v -0.88 q -0.68,1.64 -2.16,2.6 -1.48,0.92 -3.52,0.92 z m 1.04,-3.44 q 1.96,0 3.24,-1.36 1.32,-1.36 1.32,-3.44 v -0.88 h -1.36 q -3.76,0 -5.24,0.6 -1.44,0.56 -1.44,2.08 0,1.32 0.92,2.16 0.92,0.84 2.56,0.84 z"
         id="path20615" />
      <path
         d="m 190.36289,58.05377 q -6.68,0 -6.68,-7.48 v -18.92 q 0,-2.52 2.48,-2.52 2.52,0 2.52,2.52 v 18.68 q 0,3.6 3,3.6 0.32,0 0.6,0 0.28,-0.04 0.56,-0.08 0.56,-0.08 0.76,0.32 0.2,0.36 0.2,1.52 0,1 -0.4,1.56 -0.4,0.56 -1.32,0.68 -0.84,0.12 -1.72,0.12 z"
         id="path20617" />
      <path
         d="m 203.12282,58.05377 q -6.68,0 -6.68,-7.48 v -18.92 q 0,-2.52 2.48,-2.52 2.52,0 2.52,2.52 v 18.68 q 0,3.6 3,3.6 0.32,0 0.6,0 0.28,-0.04 0.56,-0.08 0.56,-0.08 0.76,0.32 0.2,0.36 0.2,1.52 0,1 -0.4,1.56 -0.4,0.56 -1.32,0.68 -0.84,0.12 -1.72,0.12 z"
         id="path20619" />
      <path
         d="m 217.92271,58.05377 q -3.04,0 -5.28,-1.24 -2.24,-1.24 -3.48,-3.52 -1.24,-2.32 -1.24,-5.44 0,-3.12 1.24,-5.4 1.24,-2.28 3.48,-3.52 2.24,-1.24 5.28,-1.24 3.04,0 5.28,1.24 2.24,1.24 3.48,3.52 1.24,2.28 1.24,5.4 0,3.12 -1.24,5.44 -1.24,2.28 -3.48,3.52 -2.24,1.24 -5.28,1.24 z m 0,-3.8 q 2.24,0 3.6,-1.6 1.36,-1.64 1.36,-4.8 0,-3.2 -1.36,-4.76 -1.36,-1.6 -3.6,-1.6 -2.24,0 -3.6,1.6 -1.36,1.56 -1.36,4.76 0,3.16 1.36,4.8 1.36,1.6 3.6,1.6 z"
         id="path20621" />
      <path
         d="m 239.12264,58.05377 q -7.2,0 -7.2,-8.08 v -9.68 q 0,-2.52 2.48,-2.52 2.52,0 2.52,2.52 v 9.76 q 0,2.08 0.84,3.08 0.84,1 2.68,1 2,0 3.28,-1.36 1.28,-1.4 1.28,-3.68 v -8.8 q 0,-2.52 2.48,-2.52 2.52,0 2.52,2.52 v 15.12 q 0,2.56 -2.44,2.56 -2.44,0 -2.44,-2.56 v -0.68 q -1.96,3.32 -6,3.32 z"
         id="path20623" />
      <path
         d="m 264.16258,58.05377 q -7.76,0 -7.76,-7.68 v -8.52 h -2.08 q -2,0 -2,-1.88 0,-1.88 2,-1.88 h 2.08 v -3.64 q 0,-2.52 2.52,-2.52 2.48,0 2.48,2.52 v 3.64 h 4.24 q 2,0 2,1.88 0,1.88 -2,1.88 h -4.24 v 8.24 q 0,1.92 0.84,2.88 0.84,0.96 2.72,0.96 0.68,0 1.2,-0.12 0.52,-0.12 0.92,-0.16 0.48,-0.04 0.8,0.32 0.32,0.32 0.32,1.36 0,0.8 -0.28,1.44 -0.24,0.6 -0.92,0.84 -0.52,0.16 -1.36,0.28 -0.84,0.16 -1.48,0.16 z"
         id="path20625" />
      <path
         d="m 277.72254,58.05377 q -1.72,0 -3.64,-0.36 -1.92,-0.36 -3.44,-1.24 -0.84,-0.48 -1.04,-1.16 -0.2,-0.72 0.04,-1.32 0.28,-0.64 0.88,-0.92 0.64,-0.28 1.48,0.12 1.6,0.76 3,1.08 1.4,0.28 2.76,0.28 1.92,0 2.84,-0.64 0.96,-0.68 0.96,-1.76 0,-1.68 -2.48,-2.16 l -4,-0.76 q -5.08,-0.96 -5.08,-5.28 0,-1.92 1.04,-3.32 1.08,-1.4 2.96,-2.16 1.88,-0.76 4.32,-0.76 3.52,0 6.28,1.56 0.76,0.4 0.88,1.12 0.16,0.68 -0.16,1.32 -0.28,0.6 -0.92,0.88 -0.64,0.24 -1.48,-0.16 -1.24,-0.64 -2.4,-0.92 -1.12,-0.28 -2.16,-0.28 -1.96,0 -2.92,0.68 -0.92,0.68 -0.92,1.8 0,1.76 2.28,2.16 l 4,0.76 q 2.6,0.48 3.92,1.76 1.36,1.28 1.36,3.44 0,2.92 -2.28,4.6 -2.28,1.64 -6.08,1.64 z"
         id="path20627" />
    </g>
    <g
       aria-label="Needs Callouts"
       id="text14174"
       style="font-weight:bold;font-size:40px;line-height:1.25;font-family:Nunito;-inkscape-font-specification:'Nunito, Bold';fill:#e7ebf0;stroke:#293039">
      <path
         d="m 12.563206,55.97377 q -2.4,0 -2.4,-2.48 v -23.8 q 0,-1.24 0.6,-1.88 0.64,-0.68 1.64,-0.68 0.92,0 1.36,0.36 0.48,0.32 1.12,1.12 l 14.28,18.52 v -17.56 q 0,-2.44 2.4,-2.44 2.36,0 2.36,2.44 v 24 q 0,1.12 -0.56,1.76 -0.56,0.64 -1.52,0.64 -0.92,0 -1.48,-0.36 -0.52,-0.36 -1.16,-1.16 l -14.28,-18.56 v 17.6 q 0,2.48 -2.36,2.48 z"
         id="path20513" />
      <path
         d="m 49.243173,56.05377 q -3.32,0 -5.72,-1.24 -2.4,-1.24 -3.72,-3.52 -1.28,-2.28 -1.28,-5.4 0,-3.04 1.24,-5.32 1.28,-2.28 3.48,-3.56 2.24,-1.32 5.08,-1.32 4.16,0 6.56,2.64 2.44,2.64 2.44,7.2 0,1.48 -1.92,1.48 h -12.08 q 0.56,5.24 6,5.24 1.04,0 2.32,-0.24 1.32,-0.28 2.48,-0.92 1.04,-0.6 1.76,-0.36 0.72,0.2 1,0.84 0.32,0.64 0.08,1.44 -0.2,0.76 -1.12,1.32 -1.4,0.88 -3.24,1.32 -1.8,0.4 -3.36,0.4 z m -0.72,-16.96 q -2.2,0 -3.56,1.36 -1.36,1.36 -1.64,3.68 h 9.84 q -0.16,-2.44 -1.36,-3.72 -1.16,-1.32 -3.28,-1.32 z"
         id="path20515" />
      <path
         d="m 70.923166,56.05377 q -3.32,0 -5.72,-1.24 -2.4,-1.24 -3.72,-3.52 -1.28,-2.28 -1.28,-5.4 0,-3.04 1.24,-5.32 1.28,-2.28 3.48,-3.56 2.24,-1.32 5.08,-1.32 4.16,0 6.56,2.64 2.44,2.64 2.44,7.2 0,1.48 -1.92,1.48 h -12.08 q 0.56,5.24 6,5.24 1.04,0 2.32,-0.24 1.32,-0.28 2.48,-0.92 1.04,-0.6 1.76,-0.36 0.72,0.2 1,0.84 0.32,0.64 0.08,1.44 -0.2,0.76 -1.12,1.32 -1.4,0.88 -3.24,1.32 -1.8,0.4 -3.36,0.4 z m -0.72,-16.96 q -2.2,0 -3.56,1.36 -1.36,1.36 -1.64,3.68 h 9.84 q -0.16,-2.44 -1.36,-3.72 -1.16,-1.32 -3.28,-1.32 z"
         id="path20517" />
      <path
         d="m 90.483159,56.05377 q -2.56,0 -4.52,-1.24 -1.92,-1.24 -3,-3.52 -1.08,-2.32 -1.08,-5.44 0,-3.16 1.08,-5.4 1.08,-2.28 3,-3.52 1.96,-1.24 4.52,-1.24 2.08,0 3.76,0.92 1.68,0.92 2.52,2.44 v -9.4 q 0,-2.52 2.48,-2.52 2.520001,0 2.520001,2.52 v 23.76 q 0,2.56 -2.480001,2.56 -2.48,0 -2.48,-2.56 v -0.84 q -0.84,1.6 -2.52,2.56 -1.68,0.92 -3.8,0.92 z m 1.4,-3.8 q 2.24,0 3.6,-1.6 1.36,-1.64 1.36,-4.8 0,-3.2 -1.36,-4.76 -1.36,-1.6 -3.6,-1.6 -2.24,0 -3.6,1.6 -1.36,1.56 -1.36,4.76 0,3.16 1.36,4.8 1.36,1.6 3.6,1.6 z"
         id="path20519" />
      <path
         d="m 114.1231,56.05377 q -1.72,0 -3.64,-0.36 -1.92,-0.36 -3.44,-1.24 -0.84,-0.48 -1.04,-1.16 -0.2,-0.72 0.04,-1.32 0.28,-0.64 0.88,-0.92 0.64,-0.28 1.48,0.12 1.6,0.76 3,1.08 1.4,0.28 2.76,0.28 1.92,0 2.84,-0.64 0.96,-0.68 0.96,-1.76 0,-1.68 -2.48,-2.16 l -4,-0.76 q -5.08,-0.96 -5.08,-5.28 0,-1.92 1.04,-3.32 1.08,-1.4 2.96,-2.16 1.88,-0.76 4.32,-0.76 3.52,0 6.28,1.56 0.76,0.4 0.88,1.12 0.16,0.68 -0.16,1.32 -0.28,0.6 -0.92,0.88 -0.64,0.24 -1.48,-0.16 -1.24,-0.64 -2.4,-0.92 -1.12,-0.28 -2.16,-0.28 -1.96,0 -2.92,0.68 -0.92,0.68 -0.92,1.8 0,1.76 2.28,2.16 l 4,0.76 q 2.6,0.48 3.92,1.76 1.36,1.28 1.36,3.44 0,2.92 -2.28,4.6 -2.28,1.64 -6.08,1.64 z"
         id="path20521" />
      <path
         d="m 150.92305,56.05377 q -4.4,0 -7.56,-1.76 -3.12,-1.8 -4.8,-5.04 -1.68,-3.28 -1.68,-7.72 0,-4.44 1.68,-7.68 1.68,-3.24 4.8,-5 3.16,-1.8 7.56,-1.8 2.2,0 4.32,0.56 2.12,0.56 3.72,1.6 1.04,0.68 1.24,1.64 0.2,0.92 -0.24,1.72 -0.44,0.76 -1.32,1.04 -0.88,0.24 -1.96,-0.48 -1.24,-0.8 -2.68,-1.16 -1.44,-0.36 -2.92,-0.36 -4.28,0 -6.52,2.6 -2.24,2.56 -2.24,7.32 0,4.76 2.24,7.36 2.24,2.6 6.52,2.6 1.52,0 3,-0.36 1.48,-0.4 2.8,-1.2 1.08,-0.68 1.92,-0.44 0.84,0.24 1.24,1 0.44,0.72 0.28,1.6 -0.16,0.88 -1.08,1.56 -1.6,1.16 -3.84,1.8 -2.2,0.6 -4.48,0.6 z"
         id="path20523" />
      <path
         d="m 170.24293,56.05377 q -2.12,0 -3.8,-0.8 -1.64,-0.84 -2.6,-2.24 -0.92,-1.4 -0.92,-3.16 0,-2.16 1.12,-3.4 1.12,-1.28 3.64,-1.84 2.52,-0.56 6.76,-0.56 h 1.4 v -0.84 q 0,-2 -0.88,-2.88 -0.88,-0.88 -2.96,-0.88 -1.16,0 -2.52,0.28 -1.32,0.28 -2.8,0.96 -0.96,0.44 -1.6,0.12 -0.64,-0.36 -0.88,-1.08 -0.2,-0.76 0.08,-1.52 0.32,-0.76 1.24,-1.12 1.84,-0.76 3.52,-1.08 1.72,-0.32 3.12,-0.32 4.28,0 6.36,2 2.08,1.96 2.08,6.12 v 9.6 q 0,2.56 -2.32,2.56 -2.36,0 -2.36,-2.56 v -0.88 q -0.68,1.64 -2.16,2.6 -1.48,0.92 -3.52,0.92 z m 1.04,-3.44 q 1.96,0 3.24,-1.36 1.32,-1.36 1.32,-3.44 v -0.88 h -1.36 q -3.76,0 -5.24,0.6 -1.44,0.56 -1.44,2.08 0,1.32 0.92,2.16 0.92,0.84 2.56,0.84 z"
         id="path20525" />
      <path
         d="m 192.36289,56.05377 q -6.68,0 -6.68,-7.48 v -18.92 q 0,-2.52 2.48,-2.52 2.52,0 2.52,2.52 v 18.68 q 0,3.6 3,3.6 0.32,0 0.6,0 0.28,-0.04 0.56,-0.08 0.56,-0.08 0.76,0.32 0.2,0.36 0.2,1.52 0,1 -0.4,1.56 -0.4,0.56 -1.32,0.68 -0.84,0.12 -1.72,0.12 z"
         id="path20527" />
      <path
         d="m 205.12282,56.05377 q -6.68,0 -6.68,-7.48 v -18.92 q 0,-2.52 2.48,-2.52 2.52,0 2.52,2.52 v 18.68 q 0,3.6 3,3.6 0.32,0 0.6,0 0.28,-0.04 0.56,-0.08 0.56,-0.08 0.76,0.32 0.2,0.36 0.2,1.52 0,1 -0.4,1.56 -0.4,0.56 -1.32,0.68 -0.84,0.12 -1.72,0.12 z"
         id="path20529" />
      <path
         d="m 219.92271,56.05377 q -3.04,0 -5.28,-1.24 -2.24,-1.24 -3.48,-3.52 -1.24,-2.32 -1.24,-5.44 0,-3.12 1.24,-5.4 1.24,-2.28 3.48,-3.52 2.24,-1.24 5.28,-1.24 3.04,0 5.28,1.24 2.24,1.24 3.48,3.52 1.24,2.28 1.24,5.4 0,3.12 -1.24,5.44 -1.24,2.28 -3.48,3.52 -2.24,1.24 -5.28,1.24 z m 0,-3.8 q 2.24,0 3.6,-1.6 1.36,-1.64 1.36,-4.8 0,-3.2 -1.36,-4.76 -1.36,-1.6 -3.6,-1.6 -2.24,0 -3.6,1.6 -1.36,1.56 -1.36,4.76 0,3.16 1.36,4.8 1.36,1.6 3.6,1.6 z"
         id="path20531" />
      <path
         d="m 241.12264,56.05377 q -7.2,0 -7.2,-8.08 v -9.68 q 0,-2.52 2.48,-2.52 2.52,0 2.52,2.52 v 9.76 q 0,2.08 0.84,3.08 0.84,1 2.68,1 2,0 3.28,-1.36 1.28,-1.4 1.28,-3.68 v -8.8 q 0,-2.52 2.48,-2.52 2.52,0 2.52,2.52 v 15.12 q 0,2.56 -2.44,2.56 -2.44,0 -2.44,-2.56 v -0.68 q -1.96,3.32 -6,3.32 z"
         id="path20533" />
      <path
         d="m 266.16258,56.05377 q -7.76,0 -7.76,-7.68 v -8.52 h -2.08 q -2,0 -2,-1.88 0,-1.88 2,-1.88 h 2.08 v -3.64 q 0,-2.52 2.52,-2.52 2.48,0 2.48,2.52 v 3.64 h 4.24 q 2,0 2,1.88 0,1.88 -2,1.88 h -4.24 v 8.24 q 0,1.92 0.84,2.88 0.84,0.96 2.72,0.96 0.68,0 1.2,-0.12 0.52,-0.12 0.92,-0.16 0.48,-0.04 0.8,0.32 0.32,0.32 0.32,1.36 0,0.8 -0.28,1.44 -0.24,0.6 -0.92,0.84 -0.52,0.16 -1.36,0.28 -0.84,0.16 -1.48,0.16 z"
         id="path20535" />
      <path
         d="m 279.72254,56.05377 q -1.72,0 -3.64,-0.36 -1.92,-0.36 -3.44,-1.24 -0.84,-0.48 -1.04,-1.16 -0.2,-0.72 0.04,-1.32 0.28,-0.64 0.88,-0.92 0.64,-0.28 1.48,0.12 1.6,0.76 3,1.08 1.4,0.28 2.76,0.28 1.92,0 2.84,-0.64 0.96,-0.68 0.96,-1.76 0,-1.68 -2.48,-2.16 l -4,-0.76 q -5.08,-0.96 -5.08,-5.28 0,-1.92 1.04,-3.32 1.08,-1.4 2.96,-2.16 1.88,-0.76 4.32,-0.76 3.52,0 6.28,1.56 0.76,0.4 0.88,1.12 0.16,0.68 -0.16,1.32 -0.28,0.6 -0.92,0.88 -0.64,0.24 -1.48,-0.16 -1.24,-0.64 -2.4,-0.92 -1.12,-0.28 -2.16,-0.28 -1.96,0 -2.92,0.68 -0.92,0.68 -0.92,1.8 0,1.76 2.28,2.16 l 4,0.76 q 2.6,0.48 3.92,1.76 1.36,1.28 1.36,3.44 0,2.92 -2.28,4.6 -2.28,1.64 -6.08,1.64 z"
         id="path20537" />
    </g>
  </g>
</svg>
