<svg version="1.1" viewBox="0 0 282.42 33.5" xmlns="http://www.w3.org/2000/svg">
 <g transform="translate(-6.1632 -26.554)">
  <g fill="#ff8e99" aria-label="Needs Callouts">
   <path d="m8.5632 59.974q-2.4 0-2.4-2.48v-23.8q0-1.24 0.6-1.88 0.64-0.68 1.64-0.68 0.92 0 1.36 0.36 0.48 0.32 1.12 1.12l14.28 18.52v-17.56q0-2.44 2.4-2.44 2.36 0 2.36 2.44v24q0 1.12-0.56 1.76t-1.52 0.64q-0.92 0-1.48-0.36-0.52-0.36-1.16-1.16l-14.28-18.56v17.6q0 2.48-2.36 2.48z"/>
   <path d="m45.243 60.054q-3.32 0-5.72-1.24t-3.72-3.52q-1.28-2.28-1.28-5.4 0-3.04 1.24-5.32 1.28-2.28 3.48-3.56 2.24-1.32 5.08-1.32 4.16 0 6.56 2.64 2.44 2.64 2.44 7.2 0 1.48-1.92 1.48h-12.08q0.56 5.24 6 5.24 1.04 0 2.32-0.24 1.32-0.28 2.48-0.92 1.04-0.6 1.76-0.36 0.72 0.2 1 0.84 0.32 0.64 0.08 1.44-0.2 0.76-1.12 1.32-1.4 0.88-3.24 1.32-1.8 0.4-3.36 0.4zm-0.72-16.96q-2.2 0-3.56 1.36t-1.64 3.68h9.84q-0.16-2.44-1.36-3.72-1.16-1.32-3.28-1.32z"/>
   <path d="m66.923 60.054q-3.32 0-5.72-1.24t-3.72-3.52q-1.28-2.28-1.28-5.4 0-3.04 1.24-5.32 1.28-2.28 3.48-3.56 2.24-1.32 5.08-1.32 4.16 0 6.56 2.64 2.44 2.64 2.44 7.2 0 1.48-1.92 1.48h-12.08q0.56 5.24 6 5.24 1.04 0 2.32-0.24 1.32-0.28 2.48-0.92 1.04-0.6 1.76-0.36 0.72 0.2 1 0.84 0.32 0.64 0.08 1.44-0.2 0.76-1.12 1.32-1.4 0.88-3.24 1.32-1.8 0.4-3.36 0.4zm-0.72-16.96q-2.2 0-3.56 1.36t-1.64 3.68h9.84q-0.16-2.44-1.36-3.72-1.16-1.32-3.28-1.32z"/>
   <path d="m86.483 60.054q-2.56 0-4.52-1.24-1.92-1.24-3-3.52-1.08-2.32-1.08-5.44 0-3.16 1.08-5.4 1.08-2.28 3-3.52 1.96-1.24 4.52-1.24 2.08 0 3.76 0.92t2.52 2.44v-9.4q0-2.52 2.48-2.52 2.52 0 2.52 2.52v23.76q0 2.56-2.48 2.56t-2.48-2.56v-0.84q-0.84 1.6-2.52 2.56-1.68 0.92-3.8 0.92zm1.4-3.8q2.24 0 3.6-1.6 1.36-1.64 1.36-4.8 0-3.2-1.36-4.76-1.36-1.6-3.6-1.6t-3.6 1.6q-1.36 1.56-1.36 4.76 0 3.16 1.36 4.8 1.36 1.6 3.6 1.6z"/>
   <path d="m110.12 60.054q-1.72 0-3.64-0.36t-3.44-1.24q-0.84-0.48-1.04-1.16-0.2-0.72 0.04-1.32 0.28-0.64 0.88-0.92 0.64-0.28 1.48 0.12 1.6 0.76 3 1.08 1.4 0.28 2.76 0.28 1.92 0 2.84-0.64 0.96-0.68 0.96-1.76 0-1.68-2.48-2.16l-4-0.76q-5.08-0.96-5.08-5.28 0-1.92 1.04-3.32 1.08-1.4 2.96-2.16t4.32-0.76q3.52 0 6.28 1.56 0.76 0.4 0.88 1.12 0.16 0.68-0.16 1.32-0.28 0.6-0.92 0.88-0.64 0.24-1.48-0.16-1.24-0.64-2.4-0.92-1.12-0.28-2.16-0.28-1.96 0-2.92 0.68-0.92 0.68-0.92 1.8 0 1.76 2.28 2.16l4 0.76q2.6 0.48 3.92 1.76 1.36 1.28 1.36 3.44 0 2.92-2.28 4.6-2.28 1.64-6.08 1.64z"/>
   <path d="m146.92 60.054q-4.4 0-7.56-1.76-3.12-1.8-4.8-5.04-1.68-3.28-1.68-7.72t1.68-7.68 4.8-5q3.16-1.8 7.56-1.8 2.2 0 4.32 0.56t3.72 1.6q1.04 0.68 1.24 1.64 0.2 0.92-0.24 1.72-0.44 0.76-1.32 1.04-0.88 0.24-1.96-0.48-1.24-0.8-2.68-1.16t-2.92-0.36q-4.28 0-6.52 2.6-2.24 2.56-2.24 7.32t2.24 7.36 6.52 2.6q1.52 0 3-0.36 1.48-0.4 2.8-1.2 1.08-0.68 1.92-0.44t1.24 1q0.44 0.72 0.28 1.6t-1.08 1.56q-1.6 1.16-3.84 1.8-2.2 0.6-4.48 0.6z"/>
   <path d="m166.24 60.054q-2.12 0-3.8-0.8-1.64-0.84-2.6-2.24-0.92-1.4-0.92-3.16 0-2.16 1.12-3.4 1.12-1.28 3.64-1.84t6.76-0.56h1.4v-0.84q0-2-0.88-2.88t-2.96-0.88q-1.16 0-2.52 0.28-1.32 0.28-2.8 0.96-0.96 0.44-1.6 0.12-0.64-0.36-0.88-1.08-0.2-0.76 0.08-1.52 0.32-0.76 1.24-1.12 1.84-0.76 3.52-1.08 1.72-0.32 3.12-0.32 4.28 0 6.36 2 2.08 1.96 2.08 6.12v9.6q0 2.56-2.32 2.56-2.36 0-2.36-2.56v-0.88q-0.68 1.64-2.16 2.6-1.48 0.92-3.52 0.92zm1.04-3.44q1.96 0 3.24-1.36 1.32-1.36 1.32-3.44v-0.88h-1.36q-3.76 0-5.24 0.6-1.44 0.56-1.44 2.08 0 1.32 0.92 2.16t2.56 0.84z"/>
   <path d="m188.36 60.054q-6.68 0-6.68-7.48v-18.92q0-2.52 2.48-2.52 2.52 0 2.52 2.52v18.68q0 3.6 3 3.6 0.32 0 0.6 0 0.28-0.04 0.56-0.08 0.56-0.08 0.76 0.32 0.2 0.36 0.2 1.52 0 1-0.4 1.56t-1.32 0.68q-0.84 0.12-1.72 0.12z"/>
   <path d="m201.12 60.054q-6.68 0-6.68-7.48v-18.92q0-2.52 2.48-2.52 2.52 0 2.52 2.52v18.68q0 3.6 3 3.6 0.32 0 0.6 0 0.28-0.04 0.56-0.08 0.56-0.08 0.76 0.32 0.2 0.36 0.2 1.52 0 1-0.4 1.56t-1.32 0.68q-0.84 0.12-1.72 0.12z"/>
   <path d="m215.92 60.054q-3.04 0-5.28-1.24t-3.48-3.52q-1.24-2.32-1.24-5.44t1.24-5.4 3.48-3.52 5.28-1.24 5.28 1.24 3.48 3.52 1.24 5.4-1.24 5.44q-1.24 2.28-3.48 3.52t-5.28 1.24zm0-3.8q2.24 0 3.6-1.6 1.36-1.64 1.36-4.8 0-3.2-1.36-4.76-1.36-1.6-3.6-1.6t-3.6 1.6q-1.36 1.56-1.36 4.76 0 3.16 1.36 4.8 1.36 1.6 3.6 1.6z"/>
   <path d="m237.12 60.054q-7.2 0-7.2-8.08v-9.68q0-2.52 2.48-2.52 2.52 0 2.52 2.52v9.76q0 2.08 0.84 3.08t2.68 1q2 0 3.28-1.36 1.28-1.4 1.28-3.68v-8.8q0-2.52 2.48-2.52 2.52 0 2.52 2.52v15.12q0 2.56-2.44 2.56t-2.44-2.56v-0.68q-1.96 3.32-6 3.32z"/>
   <path d="m262.16 60.054q-7.76 0-7.76-7.68v-8.52h-2.08q-2 0-2-1.88t2-1.88h2.08v-3.64q0-2.52 2.52-2.52 2.48 0 2.48 2.52v3.64h4.24q2 0 2 1.88t-2 1.88h-4.24v8.24q0 1.92 0.84 2.88t2.72 0.96q0.68 0 1.2-0.12t0.92-0.16q0.48-0.04 0.8 0.32 0.32 0.32 0.32 1.36 0 0.8-0.28 1.44-0.24 0.6-0.92 0.84-0.52 0.16-1.36 0.28-0.84 0.16-1.48 0.16z"/>
   <path d="m275.72 60.054q-1.72 0-3.64-0.36t-3.44-1.24q-0.84-0.48-1.04-1.16-0.2-0.72 0.04-1.32 0.28-0.64 0.88-0.92 0.64-0.28 1.48 0.12 1.6 0.76 3 1.08 1.4 0.28 2.76 0.28 1.92 0 2.84-0.64 0.96-0.68 0.96-1.76 0-1.68-2.48-2.16l-4-0.76q-5.08-0.96-5.08-5.28 0-1.92 1.04-3.32 1.08-1.4 2.96-2.16t4.32-0.76q3.52 0 6.28 1.56 0.76 0.4 0.88 1.12 0.16 0.68-0.16 1.32-0.28 0.6-0.92 0.88-0.64 0.24-1.48-0.16-1.24-0.64-2.4-0.92-1.12-0.28-2.16-0.28-1.96 0-2.92 0.68-0.92 0.68-0.92 1.8 0 1.76 2.28 2.16l4 0.76q2.6 0.48 3.92 1.76 1.36 1.28 1.36 3.44 0 2.92-2.28 4.6-2.28 1.64-6.08 1.64z"/>
  </g>
  <text fill="#000000" font-family="sans-serif" font-size="40px" style="line-height:1.25;shape-inside:url(#rect2696);white-space:pre" xml:space="preserve"/>
  <g fill="#293039" aria-label="Needs Callouts">
   <path d="m10.563 57.974q-2.4 0-2.4-2.48v-23.8q0-1.24 0.6-1.88 0.64-0.68 1.64-0.68 0.92 0 1.36 0.36 0.48 0.32 1.12 1.12l14.28 18.52v-17.56q0-2.44 2.4-2.44 2.36 0 2.36 2.44v24q0 1.12-0.56 1.76t-1.52 0.64q-0.92 0-1.48-0.36-0.52-0.36-1.16-1.16l-14.28-18.56v17.6q0 2.48-2.36 2.48z"/>
   <path d="m47.243 58.054q-3.32 0-5.72-1.24t-3.72-3.52q-1.28-2.28-1.28-5.4 0-3.04 1.24-5.32 1.28-2.28 3.48-3.56 2.24-1.32 5.08-1.32 4.16 0 6.56 2.64 2.44 2.64 2.44 7.2 0 1.48-1.92 1.48h-12.08q0.56 5.24 6 5.24 1.04 0 2.32-0.24 1.32-0.28 2.48-0.92 1.04-0.6 1.76-0.36 0.72 0.2 1 0.84 0.32 0.64 0.08 1.44-0.2 0.76-1.12 1.32-1.4 0.88-3.24 1.32-1.8 0.4-3.36 0.4zm-0.72-16.96q-2.2 0-3.56 1.36t-1.64 3.68h9.84q-0.16-2.44-1.36-3.72-1.16-1.32-3.28-1.32z"/>
   <path d="m68.923 58.054q-3.32 0-5.72-1.24t-3.72-3.52q-1.28-2.28-1.28-5.4 0-3.04 1.24-5.32 1.28-2.28 3.48-3.56 2.24-1.32 5.08-1.32 4.16 0 6.56 2.64 2.44 2.64 2.44 7.2 0 1.48-1.92 1.48h-12.08q0.56 5.24 6 5.24 1.04 0 2.32-0.24 1.32-0.28 2.48-0.92 1.04-0.6 1.76-0.36 0.72 0.2 1 0.84 0.32 0.64 0.08 1.44-0.2 0.76-1.12 1.32-1.4 0.88-3.24 1.32-1.8 0.4-3.36 0.4zm-0.72-16.96q-2.2 0-3.56 1.36t-1.64 3.68h9.84q-0.16-2.44-1.36-3.72-1.16-1.32-3.28-1.32z"/>
   <path d="m88.483 58.054q-2.56 0-4.52-1.24-1.92-1.24-3-3.52-1.08-2.32-1.08-5.44 0-3.16 1.08-5.4 1.08-2.28 3-3.52 1.96-1.24 4.52-1.24 2.08 0 3.76 0.92t2.52 2.44v-9.4q0-2.52 2.48-2.52 2.52 0 2.52 2.52v23.76q0 2.56-2.48 2.56t-2.48-2.56v-0.84q-0.84 1.6-2.52 2.56-1.68 0.92-3.8 0.92zm1.4-3.8q2.24 0 3.6-1.6 1.36-1.64 1.36-4.8 0-3.2-1.36-4.76-1.36-1.6-3.6-1.6t-3.6 1.6q-1.36 1.56-1.36 4.76 0 3.16 1.36 4.8 1.36 1.6 3.6 1.6z"/>
   <path d="m112.12 58.054q-1.72 0-3.64-0.36t-3.44-1.24q-0.84-0.48-1.04-1.16-0.2-0.72 0.04-1.32 0.28-0.64 0.88-0.92 0.64-0.28 1.48 0.12 1.6 0.76 3 1.08 1.4 0.28 2.76 0.28 1.92 0 2.84-0.64 0.96-0.68 0.96-1.76 0-1.68-2.48-2.16l-4-0.76q-5.08-0.96-5.08-5.28 0-1.92 1.04-3.32 1.08-1.4 2.96-2.16t4.32-0.76q3.52 0 6.28 1.56 0.76 0.4 0.88 1.12 0.16 0.68-0.16 1.32-0.28 0.6-0.92 0.88-0.64 0.24-1.48-0.16-1.24-0.64-2.4-0.92-1.12-0.28-2.16-0.28-1.96 0-2.92 0.68-0.92 0.68-0.92 1.8 0 1.76 2.28 2.16l4 0.76q2.6 0.48 3.92 1.76 1.36 1.28 1.36 3.44 0 2.92-2.28 4.6-2.28 1.64-6.08 1.64z"/>
   <path d="m148.92 58.054q-4.4 0-7.56-1.76-3.12-1.8-4.8-5.04-1.68-3.28-1.68-7.72t1.68-7.68 4.8-5q3.16-1.8 7.56-1.8 2.2 0 4.32 0.56t3.72 1.6q1.04 0.68 1.24 1.64 0.2 0.92-0.24 1.72-0.44 0.76-1.32 1.04-0.88 0.24-1.96-0.48-1.24-0.8-2.68-1.16t-2.92-0.36q-4.28 0-6.52 2.6-2.24 2.56-2.24 7.32t2.24 7.36 6.52 2.6q1.52 0 3-0.36 1.48-0.4 2.8-1.2 1.08-0.68 1.92-0.44t1.24 1q0.44 0.72 0.28 1.6t-1.08 1.56q-1.6 1.16-3.84 1.8-2.2 0.6-4.48 0.6z"/>
   <path d="m168.24 58.054q-2.12 0-3.8-0.8-1.64-0.84-2.6-2.24-0.92-1.4-0.92-3.16 0-2.16 1.12-3.4 1.12-1.28 3.64-1.84t6.76-0.56h1.4v-0.84q0-2-0.88-2.88t-2.96-0.88q-1.16 0-2.52 0.28-1.32 0.28-2.8 0.96-0.96 0.44-1.6 0.12-0.64-0.36-0.88-1.08-0.2-0.76 0.08-1.52 0.32-0.76 1.24-1.12 1.84-0.76 3.52-1.08 1.72-0.32 3.12-0.32 4.28 0 6.36 2 2.08 1.96 2.08 6.12v9.6q0 2.56-2.32 2.56-2.36 0-2.36-2.56v-0.88q-0.68 1.64-2.16 2.6-1.48 0.92-3.52 0.92zm1.04-3.44q1.96 0 3.24-1.36 1.32-1.36 1.32-3.44v-0.88h-1.36q-3.76 0-5.24 0.6-1.44 0.56-1.44 2.08 0 1.32 0.92 2.16t2.56 0.84z"/>
   <path d="m190.36 58.054q-6.68 0-6.68-7.48v-18.92q0-2.52 2.48-2.52 2.52 0 2.52 2.52v18.68q0 3.6 3 3.6 0.32 0 0.6 0 0.28-0.04 0.56-0.08 0.56-0.08 0.76 0.32 0.2 0.36 0.2 1.52 0 1-0.4 1.56t-1.32 0.68q-0.84 0.12-1.72 0.12z"/>
   <path d="m203.12 58.054q-6.68 0-6.68-7.48v-18.92q0-2.52 2.48-2.52 2.52 0 2.52 2.52v18.68q0 3.6 3 3.6 0.32 0 0.6 0 0.28-0.04 0.56-0.08 0.56-0.08 0.76 0.32 0.2 0.36 0.2 1.52 0 1-0.4 1.56t-1.32 0.68q-0.84 0.12-1.72 0.12z"/>
   <path d="m217.92 58.054q-3.04 0-5.28-1.24t-3.48-3.52q-1.24-2.32-1.24-5.44t1.24-5.4 3.48-3.52 5.28-1.24 5.28 1.24 3.48 3.52 1.24 5.4-1.24 5.44q-1.24 2.28-3.48 3.52t-5.28 1.24zm0-3.8q2.24 0 3.6-1.6 1.36-1.64 1.36-4.8 0-3.2-1.36-4.76-1.36-1.6-3.6-1.6t-3.6 1.6q-1.36 1.56-1.36 4.76 0 3.16 1.36 4.8 1.36 1.6 3.6 1.6z"/>
   <path d="m239.12 58.054q-7.2 0-7.2-8.08v-9.68q0-2.52 2.48-2.52 2.52 0 2.52 2.52v9.76q0 2.08 0.84 3.08t2.68 1q2 0 3.28-1.36 1.28-1.4 1.28-3.68v-8.8q0-2.52 2.48-2.52 2.52 0 2.52 2.52v15.12q0 2.56-2.44 2.56t-2.44-2.56v-0.68q-1.96 3.32-6 3.32z"/>
   <path d="m264.16 58.054q-7.76 0-7.76-7.68v-8.52h-2.08q-2 0-2-1.88t2-1.88h2.08v-3.64q0-2.52 2.52-2.52 2.48 0 2.48 2.52v3.64h4.24q2 0 2 1.88t-2 1.88h-4.24v8.24q0 1.92 0.84 2.88t2.72 0.96q0.68 0 1.2-0.12t0.92-0.16q0.48-0.04 0.8 0.32 0.32 0.32 0.32 1.36 0 0.8-0.28 1.44-0.24 0.6-0.92 0.84-0.52 0.16-1.36 0.28-0.84 0.16-1.48 0.16z"/>
   <path d="m277.72 58.054q-1.72 0-3.64-0.36t-3.44-1.24q-0.84-0.48-1.04-1.16-0.2-0.72 0.04-1.32 0.28-0.64 0.88-0.92 0.64-0.28 1.48 0.12 1.6 0.76 3 1.08 1.4 0.28 2.76 0.28 1.92 0 2.84-0.64 0.96-0.68 0.96-1.76 0-1.68-2.48-2.16l-4-0.76q-5.08-0.96-5.08-5.28 0-1.92 1.04-3.32 1.08-1.4 2.96-2.16t4.32-0.76q3.52 0 6.28 1.56 0.76 0.4 0.88 1.12 0.16 0.68-0.16 1.32-0.28 0.6-0.92 0.88-0.64 0.24-1.48-0.16-1.24-0.64-2.4-0.92-1.12-0.28-2.16-0.28-1.96 0-2.92 0.68-0.92 0.68-0.92 1.8 0 1.76 2.28 2.16l4 0.76q2.6 0.48 3.92 1.76 1.36 1.28 1.36 3.44 0 2.92-2.28 4.6-2.28 1.64-6.08 1.64z"/>
  </g>
  <g fill="#e7ebf0" stroke="#293039" aria-label="Needs Callouts">
   <path d="m12.563 55.974q-2.4 0-2.4-2.48v-23.8q0-1.24 0.6-1.88 0.64-0.68 1.64-0.68 0.92 0 1.36 0.36 0.48 0.32 1.12 1.12l14.28 18.52v-17.56q0-2.44 2.4-2.44 2.36 0 2.36 2.44v24q0 1.12-0.56 1.76t-1.52 0.64q-0.92 0-1.48-0.36-0.52-0.36-1.16-1.16l-14.28-18.56v17.6q0 2.48-2.36 2.48z"/>
   <path d="m49.243 56.054q-3.32 0-5.72-1.24t-3.72-3.52q-1.28-2.28-1.28-5.4 0-3.04 1.24-5.32 1.28-2.28 3.48-3.56 2.24-1.32 5.08-1.32 4.16 0 6.56 2.64 2.44 2.64 2.44 7.2 0 1.48-1.92 1.48h-12.08q0.56 5.24 6 5.24 1.04 0 2.32-0.24 1.32-0.28 2.48-0.92 1.04-0.6 1.76-0.36 0.72 0.2 1 0.84 0.32 0.64 0.08 1.44-0.2 0.76-1.12 1.32-1.4 0.88-3.24 1.32-1.8 0.4-3.36 0.4zm-0.72-16.96q-2.2 0-3.56 1.36t-1.64 3.68h9.84q-0.16-2.44-1.36-3.72-1.16-1.32-3.28-1.32z"/>
   <path d="m70.923 56.054q-3.32 0-5.72-1.24t-3.72-3.52q-1.28-2.28-1.28-5.4 0-3.04 1.24-5.32 1.28-2.28 3.48-3.56 2.24-1.32 5.08-1.32 4.16 0 6.56 2.64 2.44 2.64 2.44 7.2 0 1.48-1.92 1.48h-12.08q0.56 5.24 6 5.24 1.04 0 2.32-0.24 1.32-0.28 2.48-0.92 1.04-0.6 1.76-0.36 0.72 0.2 1 0.84 0.32 0.64 0.08 1.44-0.2 0.76-1.12 1.32-1.4 0.88-3.24 1.32-1.8 0.4-3.36 0.4zm-0.72-16.96q-2.2 0-3.56 1.36t-1.64 3.68h9.84q-0.16-2.44-1.36-3.72-1.16-1.32-3.28-1.32z"/>
   <path d="m90.483 56.054q-2.56 0-4.52-1.24-1.92-1.24-3-3.52-1.08-2.32-1.08-5.44 0-3.16 1.08-5.4 1.08-2.28 3-3.52 1.96-1.24 4.52-1.24 2.08 0 3.76 0.92t2.52 2.44v-9.4q0-2.52 2.48-2.52 2.52 0 2.52 2.52v23.76q0 2.56-2.48 2.56-2.48 0-2.48-2.56v-0.84q-0.84 1.6-2.52 2.56-1.68 0.92-3.8 0.92zm1.4-3.8q2.24 0 3.6-1.6 1.36-1.64 1.36-4.8 0-3.2-1.36-4.76-1.36-1.6-3.6-1.6t-3.6 1.6q-1.36 1.56-1.36 4.76 0 3.16 1.36 4.8 1.36 1.6 3.6 1.6z"/>
   <path d="m114.12 56.054q-1.72 0-3.64-0.36t-3.44-1.24q-0.84-0.48-1.04-1.16-0.2-0.72 0.04-1.32 0.28-0.64 0.88-0.92 0.64-0.28 1.48 0.12 1.6 0.76 3 1.08 1.4 0.28 2.76 0.28 1.92 0 2.84-0.64 0.96-0.68 0.96-1.76 0-1.68-2.48-2.16l-4-0.76q-5.08-0.96-5.08-5.28 0-1.92 1.04-3.32 1.08-1.4 2.96-2.16t4.32-0.76q3.52 0 6.28 1.56 0.76 0.4 0.88 1.12 0.16 0.68-0.16 1.32-0.28 0.6-0.92 0.88-0.64 0.24-1.48-0.16-1.24-0.64-2.4-0.92-1.12-0.28-2.16-0.28-1.96 0-2.92 0.68-0.92 0.68-0.92 1.8 0 1.76 2.28 2.16l4 0.76q2.6 0.48 3.92 1.76 1.36 1.28 1.36 3.44 0 2.92-2.28 4.6-2.28 1.64-6.08 1.64z"/>
   <path d="m150.92 56.054q-4.4 0-7.56-1.76-3.12-1.8-4.8-5.04-1.68-3.28-1.68-7.72t1.68-7.68 4.8-5q3.16-1.8 7.56-1.8 2.2 0 4.32 0.56t3.72 1.6q1.04 0.68 1.24 1.64 0.2 0.92-0.24 1.72-0.44 0.76-1.32 1.04-0.88 0.24-1.96-0.48-1.24-0.8-2.68-1.16t-2.92-0.36q-4.28 0-6.52 2.6-2.24 2.56-2.24 7.32t2.24 7.36 6.52 2.6q1.52 0 3-0.36 1.48-0.4 2.8-1.2 1.08-0.68 1.92-0.44t1.24 1q0.44 0.72 0.28 1.6t-1.08 1.56q-1.6 1.16-3.84 1.8-2.2 0.6-4.48 0.6z"/>
   <path d="m170.24 56.054q-2.12 0-3.8-0.8-1.64-0.84-2.6-2.24-0.92-1.4-0.92-3.16 0-2.16 1.12-3.4 1.12-1.28 3.64-1.84t6.76-0.56h1.4v-0.84q0-2-0.88-2.88t-2.96-0.88q-1.16 0-2.52 0.28-1.32 0.28-2.8 0.96-0.96 0.44-1.6 0.12-0.64-0.36-0.88-1.08-0.2-0.76 0.08-1.52 0.32-0.76 1.24-1.12 1.84-0.76 3.52-1.08 1.72-0.32 3.12-0.32 4.28 0 6.36 2 2.08 1.96 2.08 6.12v9.6q0 2.56-2.32 2.56-2.36 0-2.36-2.56v-0.88q-0.68 1.64-2.16 2.6-1.48 0.92-3.52 0.92zm1.04-3.44q1.96 0 3.24-1.36 1.32-1.36 1.32-3.44v-0.88h-1.36q-3.76 0-5.24 0.6-1.44 0.56-1.44 2.08 0 1.32 0.92 2.16t2.56 0.84z"/>
   <path d="m192.36 56.054q-6.68 0-6.68-7.48v-18.92q0-2.52 2.48-2.52 2.52 0 2.52 2.52v18.68q0 3.6 3 3.6 0.32 0 0.6 0 0.28-0.04 0.56-0.08 0.56-0.08 0.76 0.32 0.2 0.36 0.2 1.52 0 1-0.4 1.56t-1.32 0.68q-0.84 0.12-1.72 0.12z"/>
   <path d="m205.12 56.054q-6.68 0-6.68-7.48v-18.92q0-2.52 2.48-2.52 2.52 0 2.52 2.52v18.68q0 3.6 3 3.6 0.32 0 0.6 0 0.28-0.04 0.56-0.08 0.56-0.08 0.76 0.32 0.2 0.36 0.2 1.52 0 1-0.4 1.56t-1.32 0.68q-0.84 0.12-1.72 0.12z"/>
   <path d="m219.92 56.054q-3.04 0-5.28-1.24t-3.48-3.52q-1.24-2.32-1.24-5.44t1.24-5.4 3.48-3.52 5.28-1.24 5.28 1.24 3.48 3.52 1.24 5.4-1.24 5.44q-1.24 2.28-3.48 3.52t-5.28 1.24zm0-3.8q2.24 0 3.6-1.6 1.36-1.64 1.36-4.8 0-3.2-1.36-4.76-1.36-1.6-3.6-1.6t-3.6 1.6q-1.36 1.56-1.36 4.76 0 3.16 1.36 4.8 1.36 1.6 3.6 1.6z"/>
   <path d="m241.12 56.054q-7.2 0-7.2-8.08v-9.68q0-2.52 2.48-2.52 2.52 0 2.52 2.52v9.76q0 2.08 0.84 3.08t2.68 1q2 0 3.28-1.36 1.28-1.4 1.28-3.68v-8.8q0-2.52 2.48-2.52 2.52 0 2.52 2.52v15.12q0 2.56-2.44 2.56t-2.44-2.56v-0.68q-1.96 3.32-6 3.32z"/>
   <path d="m266.16 56.054q-7.76 0-7.76-7.68v-8.52h-2.08q-2 0-2-1.88t2-1.88h2.08v-3.64q0-2.52 2.52-2.52 2.48 0 2.48 2.52v3.64h4.24q2 0 2 1.88t-2 1.88h-4.24v8.24q0 1.92 0.84 2.88t2.72 0.96q0.68 0 1.2-0.12t0.92-0.16q0.48-0.04 0.8 0.32 0.32 0.32 0.32 1.36 0 0.8-0.28 1.44-0.24 0.6-0.92 0.84-0.52 0.16-1.36 0.28-0.84 0.16-1.48 0.16z"/>
   <path d="m279.72 56.054q-1.72 0-3.64-0.36t-3.44-1.24q-0.84-0.48-1.04-1.16-0.2-0.72 0.04-1.32 0.28-0.64 0.88-0.92 0.64-0.28 1.48 0.12 1.6 0.76 3 1.08 1.4 0.28 2.76 0.28 1.92 0 2.84-0.64 0.96-0.68 0.96-1.76 0-1.68-2.48-2.16l-4-0.76q-5.08-0.96-5.08-5.28 0-1.92 1.04-3.32 1.08-1.4 2.96-2.16t4.32-0.76q3.52 0 6.28 1.56 0.76 0.4 0.88 1.12 0.16 0.68-0.16 1.32-0.28 0.6-0.92 0.88-0.64 0.24-1.48-0.16-1.24-0.64-2.4-0.92-1.12-0.28-2.16-0.28-1.96 0-2.92 0.68-0.92 0.68-0.92 1.8 0 1.76 2.28 2.16l4 0.76q2.6 0.48 3.92 1.76 1.36 1.28 1.36 3.44 0 2.92-2.28 4.6-2.28 1.64-6.08 1.64z"/>
  </g>
 </g>
</svg>
